<?xml version="1.0" encoding="UTF-8"?>
<svg version="1.1" xmlns="http://www.w3.org/2000/svg" width="3264" height="3264">
<path d="M0 0 C80.52 0 161.04 0 244 0 C244 30.03 244 60.06 244 91 C267.1 91 290.2 91 314 91 C314 113.11 314 135.22 314 158 C338.42 158 362.84 158 388 158 C388 135.89 388 113.78 388 91 C411.43 91 434.86 91 459 91 C459 60.97 459 30.94 459 0 C539.52 0 620.04 0 703 0 C703 86.46 703 172.92 703 262 C672.97 262 642.94 262 612 262 C612 285.1 612 308.2 612 332 C589.89 332 567.78 332 545 332 C545 358.07 545 384.14 545 411 C567.11 411 589.22 411 612 411 C612 434.43 612 457.86 612 482 C642.03 482 672.06 482 703 482 C703 568.13 703 654.26 703 743 C622.48 743 541.96 743 459 743 C459 713.3 459 683.6 459 653 C435.57 653 412.14 653 388 653 C388 630.56 388 608.12 388 585 C363.58 585 339.16 585 314 585 C314 607.44 314 629.88 314 653 C290.9 653 267.8 653 244 653 C244 682.7 244 712.4 244 743 C163.48 743 82.96 743 0 743 C0 656.87 0 570.74 0 482 C30.03 482 60.06 482 91 482 C91 458.57 91 435.14 91 411 C113.11 411 135.22 411 158 411 C158 384.93 158 358.86 158 332 C135.89 332 113.78 332 91 332 C91 308.9 91 285.8 91 262 C60.97 262 30.94 262 0 262 C0 175.54 0 89.08 0 0 Z " fill="#DDDDDD" transform="translate(2088,1209)"/>
<path d="M0 0 C187.44 0 374.88 0 568 0 C568 174.9 568 349.8 568 530 C461.08 530 354.16 530 244 530 C244 600.29 244 670.58 244 743 C163.48 743 82.96 743 0 743 C0 497.81 0 252.62 0 0 Z M247 177 C247 234.09 247 291.18 247 350 C271.42 350 295.84 350 321 350 C321 292.91 321 235.82 321 177 C296.58 177 272.16 177 247 177 Z " fill="#DDDDDD" transform="translate(535,1209)"/>
<path d="M0 0 C78.87 0 157.74 0 239 0 C239 180.18 239 360.36 239 546 C343.94 546 448.88 546 557 546 C557 611.01 557 676.02 557 743 C373.19 743 189.38 743 0 743 C0 497.81 0 252.62 0 0 Z " fill="#DDDDDD" transform="translate(1165,1209)"/>
<path d="M0 0 C77.88 0 155.76 0 236 0 C236 245.19 236 490.38 236 743 C158.12 743 80.24 743 0 743 C0 497.81 0 252.62 0 0 Z " fill="#DEDEDE" transform="translate(1777,1209)"/>
</svg>
